<svg xmlns="http://www.w3.org/2000/svg">
    <symbol xmlns="http://www.w3.org/2000/svg" id="arrow-left" viewBox="0 0 16 16">
        <path fill-rule="evenodd" d="M12 8a.5.5 0 0 1-.5.5H5.707l2.147 2.146a.5.5 0 0 1-.708.708l-3-3a.5.5 0 0 1 0-.708l3-3a.5.5 0 1 1 .708.708L5.707 7.5H11.5a.5.5 0 0 1 .5.5"/>
    </symbol>
    <symbol xmlns="http://www.w3.org/2000/svg" id="person" class="bi bi-person-circle" viewBox="0 0 16 16">
        <path d="M11 6a3 3 0 1 1-6 0 3 3 0 0 1 6 0"/>
        <path fill-rule="evenodd" d="M0 8a8 8 0 1 1 16 0A8 8 0 0 1 0 8m8-7a7 7 0 0 0-5.468 11.37C3.242 11.226 4.805 10 8 10s4.757 1.225 5.468 2.37A7 7 0 0 0 8 1"/>
    </symbol>
    <symbol xmlns="http://www.w3.org/2000/svg" id="list" viewBox="0 0 496 416">
        <path d="M 24 0 Q 2 2 0 24 L 0 72 L 0 72 Q 2 94 24 96 L 72 96 L 72 96 Q 94 94 96 72 L 96 24 L 96 24 Q 94 2 72 0 L 24 0 L 24 0 Z M 176 16 Q 162 16 153 25 L 153 25 L 153 25 Q 144 34 144 48 Q 144 62 153 71 Q 162 80 176 80 L 464 80 L 464 80 Q 478 80 487 71 Q 496 62 496 48 Q 496 34 487 25 Q 478 16 464 16 L 176 16 L 176 16 Z M 176 176 Q 162 176 153 185 L 153 185 L 153 185 Q 144 194 144 208 Q 144 222 153 231 Q 162 240 176 240 L 464 240 L 464 240 Q 478 240 487 231 Q 496 222 496 208 Q 496 194 487 185 Q 478 176 464 176 L 176 176 L 176 176 Z M 176 336 Q 162 336 153 345 L 153 345 L 153 345 Q 144 354 144 368 Q 144 382 153 391 Q 162 400 176 400 L 464 400 L 464 400 Q 478 400 487 391 Q 496 382 496 368 Q 496 354 487 345 Q 478 336 464 336 L 176 336 L 176 336 Z M 0 184 L 0 232 L 0 184 L 0 232 Q 2 254 24 256 L 72 256 L 72 256 Q 94 254 96 232 L 96 184 L 96 184 Q 94 162 72 160 L 24 160 L 24 160 Q 2 162 0 184 L 0 184 Z M 24 320 Q 2 322 0 344 L 0 392 L 0 392 Q 2 414 24 416 L 72 416 L 72 416 Q 94 414 96 392 L 96 344 L 96 344 Q 94 322 72 320 L 24 320 L 24 320 Z" />
    </symbol>
    <symbol xmlns="http://www.w3.org/2000/svg" id="plus" viewBox="0 0 416 416">
        <path d="M 240 32 Q 240 18 231 9 L 231 9 L 231 9 Q 222 0 208 0 Q 194 0 185 9 Q 176 18 176 32 L 176 176 L 176 176 L 32 176 L 32 176 Q 18 176 9 185 Q 0 194 0 208 Q 0 222 9 231 Q 18 240 32 240 L 176 240 L 176 240 L 176 384 L 176 384 Q 176 398 185 407 Q 194 416 208 416 Q 222 416 231 407 Q 240 398 240 384 L 240 240 L 240 240 L 384 240 L 384 240 Q 398 240 407 231 Q 416 222 416 208 Q 416 194 407 185 Q 398 176 384 176 L 240 176 L 240 176 L 240 32 L 240 32 Z" />
    </symbol>
    <symbol xmlns="http://www.w3.org/2000/svg" id="yes" viewBox="0 0 512 512">
       <path d="M 256 512 Q 326 511 384 478 L 384 478 L 384 478 Q 442 444 478 384 Q 512 323 512 256 Q 512 189 478 128 Q 442 68 384 34 Q 326 1 256 0 Q 186 1 128 34 Q 70 68 34 128 Q 0 189 0 256 Q 0 323 34 384 Q 70 444 128 478 Q 186 511 256 512 L 256 512 Z M 369 209 L 241 337 L 369 209 L 241 337 Q 224 351 207 337 L 143 273 L 143 273 Q 129 256 143 239 Q 160 225 177 239 L 224 286 L 224 286 L 335 175 L 335 175 Q 352 161 369 175 Q 383 192 369 209 L 369 209 Z" />
    </symbol>
    <symbol xmlns="http://www.w3.org/2000/svg" id="no" viewBox="0 0 512 512">
        <path d="M 256 512 Q 326 511 384 478 L 384 478 L 384 478 Q 442 444 478 384 Q 512 323 512 256 Q 512 189 478 128 Q 442 68 384 34 Q 326 1 256 0 Q 186 1 128 34 Q 70 68 34 128 Q 0 189 0 256 Q 0 323 34 384 Q 70 444 128 478 Q 186 511 256 512 L 256 512 Z M 175 175 Q 192 161 209 175 L 256 222 L 256 222 L 303 175 L 303 175 Q 320 161 337 175 Q 351 192 337 209 L 290 256 L 290 256 L 337 303 L 337 303 Q 351 320 337 337 Q 320 351 303 337 L 256 290 L 256 290 L 209 337 L 209 337 Q 192 351 175 337 Q 161 320 175 303 L 222 256 L 222 256 L 175 209 L 175 209 Q 161 192 175 175 L 175 175 Z" />
    </symbol>
    <symbol xmlns="http://www.w3.org/2000/svg" xmlns:xlink="http://www.w3.org/1999/xlink" id="plus2" viewBox="0 0 512 512">
        <path
            d="M 256 512 Q 326 511 384 478 L 384 478 L 384 478 Q 442 444 478 384 Q 512 323 512 256 Q 512 189 478 128 Q 442 68 384 34 Q 326 1 256 0 Q 186 1 128 34 Q 70 68 34 128 Q 0 189 0 256 Q 0 323 34 384 Q 70 444 128 478 Q 186 511 256 512 L 256 512 Z M 232 344 L 232 280 L 232 344 L 232 280 L 168 280 L 168 280 Q 146 278 144 256 Q 146 234 168 232 L 232 232 L 232 232 L 232 168 L 232 168 Q 234 146 256 144 Q 278 146 280 168 L 280 232 L 280 232 L 344 232 L 344 232 Q 366 234 368 256 Q 366 278 344 280 L 280 280 L 280 280 L 280 344 L 280 344 Q 278 366 256 368 Q 234 366 232 344 L 232 344 Z"
        />
        </symbol>
    <symbol xmlns="http://www.w3.org/2000/svg" id="lock" viewBox="0 0 448 512">
        <path d="M 144 144 L 144 192 L 144 144 L 144 192 L 304 192 L 304 192 L 304 144 L 304 144 Q 303 110 281 87 Q 258 65 224 64 Q 190 65 167 87 Q 145 110 144 144 L 144 144 Z M 80 192 L 80 144 L 80 192 L 80 144 Q 82 83 122 42 Q 163 2 224 0 Q 285 2 326 42 Q 366 83 368 144 L 368 192 L 368 192 L 384 192 L 384 192 Q 411 193 429 211 Q 447 229 448 256 L 448 448 L 448 448 Q 447 475 429 493 Q 411 511 384 512 L 64 512 L 64 512 Q 37 511 19 493 Q 1 475 0 448 L 0 256 L 0 256 Q 1 229 19 211 Q 37 193 64 192 L 80 192 L 80 192 Z" />
    </symbol>
    <symbol xmlns="http://www.w3.org/2000/svg" id="trash" viewBox="0 0 448 512">
        <path d="M 135 18 L 128 32 L 135 18 L 128 32 L 32 32 L 32 32 Q 18 32 9 41 Q 0 50 0 64 Q 0 78 9 87 Q 18 96 32 96 L 416 96 L 416 96 Q 430 96 439 87 Q 448 78 448 64 Q 448 50 439 41 Q 430 32 416 32 L 320 32 L 320 32 L 313 18 L 313 18 Q 304 1 284 0 L 164 0 L 164 0 Q 144 1 135 18 L 135 18 Z M 416 128 L 32 128 L 416 128 L 32 128 L 53 467 L 53 467 Q 55 486 68 499 Q 82 512 101 512 L 347 512 L 347 512 Q 366 512 380 499 Q 393 486 395 467 L 416 128 L 416 128 Z" />
    </symbol>
    <symbol xmlns="http://www.w3.org/2000/svg" id="at" viewBox="0 0 512 512">
        <path d="M 256 64 Q 174 66 120 120 L 120 120 L 120 120 Q 66 174 64 256 Q 66 338 120 392 Q 174 446 256 448 Q 270 448 279 457 Q 288 466 288 480 Q 288 494 279 503 Q 270 512 256 512 Q 184 511 127 477 Q 69 443 35 385 Q 1 328 0 256 Q 1 184 35 127 Q 69 69 127 35 Q 184 1 256 0 Q 328 1 385 35 Q 443 69 477 127 Q 511 184 512 256 L 512 288 L 512 288 Q 511 329 484 356 Q 457 383 416 384 Q 371 383 343 350 Q 307 383 256 384 Q 202 383 165 347 Q 129 310 128 256 Q 129 202 165 165 Q 202 129 256 128 Q 299 129 331 152 Q 339 144 352 144 Q 366 144 375 153 Q 384 162 384 176 L 384 256 L 384 256 L 384 288 L 384 288 Q 384 302 393 311 Q 402 320 416 320 Q 430 320 439 311 Q 448 302 448 288 L 448 256 L 448 256 Q 446 174 392 120 Q 338 66 256 64 L 256 64 Z M 320 256 Q 319 220 288 201 Q 256 183 224 201 Q 193 220 192 256 Q 193 292 224 311 Q 256 329 288 311 Q 319 292 320 256 L 320 256 Z" />
    </symbol>
    <symbol xmlns="http://www.w3.org/2000/svg" id="pen" viewBox="0 0 507 507">
        <path d="M 472 17 Q 454 0 432 0 L 432 0 L 432 0 Q 410 0 392 17 L 362 47 L 362 47 L 460 145 L 460 145 L 490 115 L 490 115 Q 507 97 507 75 Q 507 53 490 35 L 472 17 L 472 17 Z M 172 237 Q 163 246 159 259 L 129 347 L 129 347 Q 125 361 135 372 Q 146 382 160 378 L 249 348 L 249 348 Q 261 344 270 335 L 438 167 L 438 167 L 340 69 L 340 69 L 172 237 L 172 237 Z M 96 59 Q 55 60 28 87 L 28 87 L 28 87 Q 1 114 0 155 L 0 411 L 0 411 Q 1 452 28 479 Q 55 506 96 507 L 352 507 L 352 507 Q 393 506 420 479 Q 447 452 448 411 L 448 315 L 448 315 Q 448 301 439 292 Q 430 283 416 283 Q 402 283 393 292 Q 384 301 384 315 L 384 411 L 384 411 Q 384 425 375 434 Q 366 443 352 443 L 96 443 L 96 443 Q 82 443 73 434 Q 64 425 64 411 L 64 155 L 64 155 Q 64 141 73 132 Q 82 123 96 123 L 192 123 L 192 123 Q 206 123 215 114 Q 224 105 224 91 Q 224 77 215 68 Q 206 59 192 59 L 96 59 L 96 59 Z" />
    </symbol>
    <symbol xmlns="http://www.w3.org/2000/svg" id="msg" viewBox="0 0 512 514">
        <path d="M 64 0 Q 37 1 19 19 L 19 19 L 19 19 Q 1 37 0 64 L 0 352 L 0 352 Q 1 379 19 397 Q 37 415 64 416 L 160 416 L 160 416 L 160 496 L 160 496 Q 160 506 169 510 Q 178 514 186 509 L 309 416 L 309 416 L 448 416 L 448 416 Q 475 415 493 397 Q 511 379 512 352 L 512 64 L 512 64 Q 511 37 493 19 Q 475 1 448 0 L 64 0 L 64 0 Z" />
    </symbol>
    <symbol xmlns="http://www.w3.org/2000/svg" viewBox="0 0 512 512" id="download">
        <path d="M 288 32 Q 288 18 279 9 L 279 9 L 279 9 Q 270 0 256 0 Q 242 0 233 9 Q 224 18 224 32 L 224 275 L 224 275 L 151 201 L 151 201 Q 141 192 128 192 Q 115 192 105 201 Q 96 211 96 224 Q 96 237 105 247 L 233 375 L 233 375 Q 243 384 256 384 Q 269 384 279 375 L 407 247 L 407 247 Q 416 237 416 224 Q 416 211 407 201 Q 397 192 384 192 Q 371 192 361 201 L 288 275 L 288 275 L 288 32 L 288 32 Z M 64 352 Q 37 353 19 371 L 19 371 L 19 371 Q 1 389 0 416 L 0 448 L 0 448 Q 1 475 19 493 Q 37 511 64 512 L 448 512 L 448 512 Q 475 511 493 493 Q 511 475 512 448 L 512 416 L 512 416 Q 511 389 493 371 Q 475 353 448 352 L 347 352 L 347 352 L 301 397 L 301 397 Q 281 416 256 416 Q 230 416 211 397 L 166 352 L 166 352 L 64 352 L 64 352 Z M 432 408 Q 454 410 456 432 Q 454 454 432 456 Q 410 454 408 432 Q 410 410 432 408 L 432 408 Z" />
    </symbol>
    <symbol xmlns="http://www.w3.org/2000/svg" viewBox="0 0 384 512" id="memo">
        <path d="M 0 64 Q 1 37 19 19 L 19 19 L 19 19 Q 37 1 64 0 L 320 0 L 320 0 Q 347 1 365 19 Q 383 37 384 64 L 384 448 L 384 448 Q 383 475 365 493 Q 347 511 320 512 L 64 512 L 64 512 Q 37 511 19 493 Q 1 475 0 448 L 0 64 L 0 64 Z M 64 144 Q 65 159 80 160 L 304 160 L 304 160 Q 319 159 320 144 Q 319 129 304 128 L 80 128 L 80 128 Q 65 129 64 144 L 64 144 Z M 80 224 Q 65 225 64 240 Q 65 255 80 256 L 304 256 L 304 256 Q 319 255 320 240 Q 319 225 304 224 L 80 224 L 80 224 Z M 80 320 Q 65 321 64 336 Q 65 351 80 352 L 208 352 L 208 352 Q 223 351 224 336 Q 223 321 208 320 L 80 320 L 80 320 Z" />
    </symbol>
    <symbol xmlns="http://www.w3.org/2000/svg" viewBox="0 0 576 512" id="memo-info">
        <path d="M 0 64 Q 1 37 19 19 L 19 19 L 19 19 Q 37 1 64 0 L 320 0 L 320 0 Q 347 1 365 19 Q 383 37 384 64 L 384 199 L 384 199 Q 328 215 292 261 Q 257 306 256 368 Q 256 413 276 450 Q 296 487 330 511 Q 325 512 320 512 L 64 512 L 64 512 Q 37 511 19 493 Q 1 475 0 448 L 0 64 L 0 64 Z M 64 144 Q 65 159 80 160 L 304 160 L 304 160 Q 319 159 320 144 Q 319 129 304 128 L 80 128 L 80 128 Q 65 129 64 144 L 64 144 Z M 80 224 Q 65 225 64 240 Q 65 255 80 256 L 240 256 L 240 256 Q 255 255 256 240 Q 255 225 240 224 L 80 224 L 80 224 Z M 80 320 Q 65 321 64 336 Q 65 351 80 352 L 176 352 L 176 352 Q 191 351 192 336 Q 191 321 176 320 L 80 320 L 80 320 Z M 432 224 Q 471 224 504 243 L 504 243 L 504 243 Q 537 262 557 296 Q 576 330 576 368 Q 576 406 557 440 Q 537 474 504 493 Q 471 512 432 512 Q 393 512 360 493 Q 327 474 307 440 Q 288 406 288 368 Q 288 330 307 296 Q 327 262 360 243 Q 393 224 432 224 L 432 224 Z M 432 320 Q 454 318 456 296 Q 454 274 432 272 Q 410 274 408 296 Q 410 318 432 320 L 432 320 Z M 400 368 Q 401 383 416 384 Q 416 384 416 384 Q 416 384 416 384 L 416 432 L 416 432 Q 416 432 416 432 Q 416 432 416 432 Q 401 433 400 448 Q 401 463 416 464 L 432 464 L 448 464 Q 463 463 464 448 Q 463 433 448 432 L 448 368 L 448 368 Q 447 353 432 352 L 416 352 L 416 352 Q 401 353 400 368 L 400 368 Z" />
    </symbol>
    <symbol xmlns="http://www.w3.org/2000/svg" viewBox="0 0 448 320" id="check">
        <path d="M 439 9 Q 448 19 448 32 L 448 32 L 448 32 Q 448 45 439 55 L 183 311 L 183 311 Q 173 320 160 320 Q 147 320 137 311 L 9 183 L 9 183 Q 0 173 0 160 Q 0 147 9 137 Q 19 128 32 128 Q 45 128 55 137 L 160 243 L 160 243 L 393 9 L 393 9 Q 403 0 416 0 Q 429 0 439 9 L 439 9 Z" />
    </symbol>
    <symbol xmlns="http://www.w3.org/2000/svg" viewBox="0 0 627 512" id="children">
        <path d="M 161 0 Q 197 1 216 32 Q 234 64 216 96 Q 197 127 161 128 Q 125 127 106 96 Q 88 64 106 32 Q 125 1 161 0 L 161 0 Z M 89 480 L 89 400 L 89 480 L 89 400 L 71 400 L 71 400 Q 63 400 58 393 Q 54 387 56 379 L 87 286 L 87 286 L 59 323 L 59 323 Q 50 334 37 336 Q 25 337 14 330 Q 3 321 1 308 Q 0 296 8 285 L 66 207 L 66 207 Q 103 161 161 160 Q 219 161 256 207 L 315 285 L 315 285 Q 322 296 321 308 Q 319 321 308 330 Q 297 337 285 336 Q 272 334 264 323 L 235 286 L 235 286 L 266 379 L 266 379 Q 268 387 264 393 Q 259 400 251 400 L 233 400 L 233 400 L 233 480 L 233 480 Q 233 494 224 503 Q 215 512 201 512 Q 187 512 178 503 Q 169 494 169 480 L 169 400 L 169 400 L 153 400 L 153 400 L 153 480 L 153 480 Q 153 494 144 503 Q 135 512 121 512 Q 107 512 98 503 Q 89 494 89 480 L 89 480 Z M 481 0 Q 517 1 536 32 Q 554 64 536 96 Q 517 127 481 128 Q 445 127 426 96 Q 408 64 426 32 Q 445 1 481 0 L 481 0 Z M 473 384 L 473 480 L 473 384 L 473 480 Q 473 494 464 503 Q 455 512 441 512 Q 427 512 418 503 Q 409 494 409 480 L 409 301 L 409 301 L 396 321 L 396 321 Q 389 332 376 335 Q 364 338 352 331 Q 341 323 338 311 Q 335 299 342 287 L 394 205 L 394 205 Q 423 161 475 160 L 487 160 L 487 160 Q 539 161 568 205 L 620 287 L 620 287 Q 627 299 624 311 Q 621 324 610 331 Q 598 338 586 335 Q 574 332 566 321 L 553 301 L 553 301 L 553 480 L 553 480 Q 553 494 544 503 Q 535 512 521 512 Q 507 512 498 503 Q 489 494 489 480 L 489 384 L 489 384 L 473 384 L 473 384 Z" />
    </symbol>
    <symbol xmlns="http://www.w3.org/2000/svg" viewBox="0 0 488 512" id="gear">
        <path d="M 484 167 Q 488 181 478 191 L 434 231 L 434 231 Q 436 243 436 256 Q 436 269 434 281 L 478 321 L 478 321 Q 488 331 484 345 Q 477 363 468 380 L 463 388 L 463 388 Q 453 404 441 419 Q 431 430 417 426 L 361 408 L 361 408 Q 341 424 317 433 L 305 491 L 305 491 Q 301 505 286 508 Q 266 512 244 512 Q 222 512 201 508 Q 187 505 183 491 L 171 433 L 171 433 Q 147 424 127 408 L 71 426 L 71 426 Q 57 430 47 419 Q 34 404 25 388 L 20 380 L 20 380 Q 11 363 4 346 Q 0 331 10 321 L 54 282 L 54 282 Q 52 269 52 256 Q 52 243 54 231 L 10 191 L 10 191 Q 0 181 4 167 Q 11 149 20 132 L 25 124 L 25 124 Q 34 108 47 93 Q 57 82 71 86 L 127 104 L 127 104 Q 147 88 171 78 L 183 21 L 183 21 Q 187 7 202 4 Q 222 0 244 0 Q 266 0 287 4 Q 301 7 305 21 L 317 78 L 317 78 Q 341 88 361 104 L 417 86 L 417 86 Q 431 82 441 93 Q 454 108 464 124 L 468 132 L 468 132 Q 477 149 484 167 L 484 167 Z M 244 336 Q 289 335 313 296 Q 335 256 313 216 Q 289 177 244 176 Q 199 177 175 216 Q 153 256 175 296 Q 199 335 244 336 L 244 336 Z" />
    </symbol>
    <symbol xmlns="http://www.w3.org/2000/svg" viewBox="0 0 640 449" id="bill">
        <path d="M 64 0 Q 37 1 19 19 L 19 19 L 19 19 Q 1 37 0 64 L 0 320 L 0 320 Q 1 347 19 365 Q 37 383 64 384 L 331 384 L 331 384 L 337 360 L 337 360 Q 341 343 353 330 L 535 149 L 535 149 Q 553 132 576 129 L 576 64 L 576 64 Q 575 37 557 19 Q 539 1 512 0 L 64 0 L 64 0 Z M 112 224 L 336 224 L 112 224 L 336 224 Q 351 225 352 240 Q 351 255 336 256 L 112 256 L 112 256 Q 97 255 96 240 Q 97 225 112 224 L 112 224 Z M 96 144 Q 97 129 112 128 L 432 128 L 432 128 Q 447 129 448 144 Q 447 159 432 160 L 112 160 L 112 160 Q 97 159 96 144 L 96 144 Z M 614 172 Q 601 160 586 160 L 586 160 L 586 160 Q 570 160 557 172 L 528 201 L 528 201 L 599 272 L 599 272 L 628 243 L 628 243 Q 640 230 640 214 Q 640 198 628 186 L 614 172 L 614 172 Z M 376 353 Q 370 359 368 368 L 353 428 L 353 428 Q 351 437 357 443 Q 363 449 372 447 L 432 432 L 432 432 Q 441 430 447 424 L 576 295 L 576 295 L 505 224 L 505 224 L 376 353 L 376 353 Z" />
    </symbol>
    <symbol xmlns="http://www.w3.org/2000/svg" viewBox="0 0 448 512" id="calendar">
        <path d="M 128 0 Q 142 0 151 9 L 151 9 L 151 9 Q 160 18 160 32 L 160 64 L 160 64 L 288 64 L 288 64 L 288 32 L 288 32 Q 288 18 297 9 Q 306 0 320 0 Q 334 0 343 9 Q 352 18 352 32 L 352 64 L 352 64 L 400 64 L 400 64 Q 420 65 434 78 Q 447 92 448 112 L 448 160 L 448 160 L 0 160 L 0 160 L 0 112 L 0 112 Q 1 92 14 78 Q 28 65 48 64 L 96 64 L 96 64 L 96 32 L 96 32 Q 96 18 105 9 Q 114 0 128 0 L 128 0 Z M 0 192 L 448 192 L 0 192 L 448 192 L 448 464 L 448 464 Q 447 484 434 498 Q 420 511 400 512 L 48 512 L 48 512 Q 28 511 14 498 Q 1 484 0 464 L 0 192 L 0 192 Z M 64 272 L 64 304 L 64 272 L 64 304 Q 65 319 80 320 L 112 320 L 112 320 Q 127 319 128 304 L 128 272 L 128 272 Q 127 257 112 256 L 80 256 L 80 256 Q 65 257 64 272 L 64 272 Z M 192 272 L 192 304 L 192 272 L 192 304 Q 193 319 208 320 L 240 320 L 240 320 Q 255 319 256 304 L 256 272 L 256 272 Q 255 257 240 256 L 208 256 L 208 256 Q 193 257 192 272 L 192 272 Z M 336 256 Q 321 257 320 272 L 320 304 L 320 304 Q 321 319 336 320 L 368 320 L 368 320 Q 383 319 384 304 L 384 272 L 384 272 Q 383 257 368 256 L 336 256 L 336 256 Z M 64 400 L 64 432 L 64 400 L 64 432 Q 65 447 80 448 L 112 448 L 112 448 Q 127 447 128 432 L 128 400 L 128 400 Q 127 385 112 384 L 80 384 L 80 384 Q 65 385 64 400 L 64 400 Z M 208 384 Q 193 385 192 400 L 192 432 L 192 432 Q 193 447 208 448 L 240 448 L 240 448 Q 255 447 256 432 L 256 400 L 256 400 Q 255 385 240 384 L 208 384 L 208 384 Z M 320 400 L 320 432 L 320 400 L 320 432 Q 321 447 336 448 L 368 448 L 368 448 Q 383 447 384 432 L 384 400 L 384 400 Q 383 385 368 384 L 336 384 L 336 384 Q 321 385 320 400 L 320 400 Z" />
    </symbol>
    <symbol xmlns="http://www.w3.org/2000/svg" viewBox="0 0 640 480" id="plate">
        <path d="M 41 0 Q 47 1 48 8 L 56 136 L 56 136 L 73 136 L 73 136 L 88 7 L 88 7 Q 89 1 96 0 Q 103 0 104 7 L 119 136 L 119 136 L 136 136 L 136 136 L 144 8 L 144 8 Q 145 1 151 0 Q 158 0 160 6 L 190 135 L 190 135 Q 192 143 192 151 Q 191 182 171 203 Q 151 223 120 224 L 120 456 L 120 456 Q 118 478 96 480 Q 74 478 72 456 L 72 224 L 72 224 Q 41 223 21 203 Q 1 182 0 151 Q 0 143 2 135 L 32 6 L 32 6 Q 34 0 41 0 L 41 0 Z M 613 1 Q 616 0 619 0 Q 638 2 640 21 L 640 200 L 640 200 L 640 304 L 640 304 L 640 456 L 640 456 Q 638 478 616 480 Q 594 478 592 456 L 592 304 L 592 304 L 544 304 L 544 304 Q 530 304 521 295 Q 512 286 512 272 L 512 144 L 512 144 Q 513 94 534 64 Q 556 33 579 18 Q 603 4 613 1 L 613 1 Z M 221 128 L 205 58 L 221 128 L 205 58 Q 261 17 336 16 Q 429 18 491 79 Q 480 107 480 144 L 480 170 L 480 170 Q 460 130 422 105 Q 384 81 336 80 Q 267 82 221 128 L 221 128 L 221 128 Z M 336 464 Q 278 463 231 438 L 231 438 L 231 438 Q 183 412 152 368 L 152 251 L 152 251 Q 165 247 176 240 L 176 240 L 176 240 Q 178 308 223 353 Q 268 398 336 400 Q 388 399 428 371 Q 467 343 485 298 Q 501 331 539 336 Q 511 394 457 428 Q 404 463 336 464 L 336 464 Z M 208 240 Q 208 205 225 176 L 225 176 L 225 176 Q 242 147 272 129 Q 302 112 336 112 Q 370 112 400 129 Q 430 147 447 176 Q 464 205 464 240 Q 464 275 447 304 Q 430 333 400 351 Q 370 368 336 368 Q 302 368 272 351 Q 242 333 225 304 Q 208 275 208 240 L 208 240 Z" />
    </symbol>
    <symbol xmlns="http://www.w3.org/2000/svg" viewBox="0 0 576 512" id="teddy">
        <path d="M 152 102 Q 129 86 128 56 Q 129 32 144 16 Q 160 1 184 0 Q 219 2 235 32 L 288 32 L 341 32 Q 357 2 392 0 Q 416 1 432 16 Q 447 32 448 56 Q 447 86 424 102 L 424 128 L 424 128 Q 423 182 384 219 Q 346 255 288 256 Q 230 255 192 219 Q 153 182 152 128 L 152 102 L 152 102 Z M 240 128 Q 255 127 256 112 Q 255 97 240 96 Q 225 97 224 112 Q 225 127 240 128 L 240 128 Z M 352 112 Q 351 97 336 96 Q 321 97 320 112 Q 321 127 336 128 Q 351 127 352 112 L 352 112 Z M 352 176 Q 351 156 333 142 L 333 142 L 333 142 Q 315 129 288 128 Q 261 129 243 142 Q 225 156 224 176 Q 225 196 243 210 Q 261 223 288 224 Q 315 223 333 210 Q 351 196 352 176 L 352 176 Z M 320 168 Q 320 178 311 185 L 311 185 L 311 185 Q 302 192 288 192 Q 274 192 265 185 Q 256 178 256 168 Q 256 158 265 151 Q 274 144 288 144 Q 302 144 311 151 Q 320 158 320 168 L 320 168 Z M 88 149 L 118 186 L 88 149 L 118 186 L 144 219 L 144 219 Q 182 266 235 281 Q 288 297 341 281 Q 394 266 433 219 L 458 186 L 458 186 L 488 149 L 488 149 L 563 208 L 563 208 L 534 246 L 534 246 L 508 278 L 508 278 Q 481 312 448 335 L 448 400 L 448 400 L 488 400 L 488 400 L 496 352 L 496 352 L 576 368 L 576 368 L 552 512 L 552 512 L 512 512 L 24 512 L 0 368 L 0 368 L 80 352 L 80 352 L 88 400 L 88 400 L 128 400 L 128 400 L 128 335 L 128 335 Q 95 312 68 278 L 42 246 L 42 246 L 13 208 L 13 208 L 88 149 L 88 149 Z M 384 384 L 352 352 L 384 384 L 352 352 L 224 352 L 224 352 L 192 384 L 192 384 L 192 416 L 192 416 L 384 416 L 384 416 L 384 384 L 384 384 Z" />
    </symbol>
    <symbol xmlns="http://www.w3.org/2000/svg" viewBox="0 0 256 448" id="left">
        <path d="M 9 201 Q 0 211 0 224 L 0 224 L 0 224 Q 0 237 9 247 L 201 439 L 201 439 Q 211 448 224 448 Q 237 448 247 439 Q 256 429 256 416 Q 256 403 247 393 L 77 224 L 77 224 L 247 55 L 247 55 Q 256 45 256 32 Q 256 19 247 9 Q 237 0 224 0 Q 211 0 201 9 L 9 201 L 9 201 Z" />
    </symbol>
    <symbol xmlns="http://www.w3.org/2000/svg" viewBox="0 0 512 448" id="logout">
        <path d="M 378 74 L 501 197 L 378 74 L 501 197 Q 512 208 512 224 Q 512 240 501 251 L 378 374 L 378 374 Q 368 384 354 384 Q 340 384 330 374 Q 320 364 320 350 L 320 288 L 320 288 L 192 288 L 192 288 Q 178 288 169 279 Q 160 270 160 256 L 160 192 L 160 192 Q 160 178 169 169 Q 178 160 192 160 L 320 160 L 320 160 L 320 98 L 320 98 Q 320 84 330 74 Q 340 64 354 64 Q 368 64 378 74 L 378 74 Z M 160 64 L 96 64 L 160 64 L 96 64 Q 82 64 73 73 Q 64 82 64 96 L 64 352 L 64 352 Q 64 366 73 375 Q 82 384 96 384 L 160 384 L 160 384 Q 174 384 183 393 Q 192 402 192 416 Q 192 430 183 439 Q 174 448 160 448 L 96 448 L 96 448 Q 55 447 28 420 Q 1 393 0 352 L 0 96 L 0 96 Q 1 55 28 28 Q 55 1 96 0 L 160 0 L 160 0 Q 174 0 183 9 Q 192 18 192 32 Q 192 46 183 55 Q 174 64 160 64 L 160 64 Z" />
    </symbol>
</svg>