<svg xmlns="http://www.w3.org/2000/svg">
    <symbol xmlns="http://www.w3.org/2000/svg" id="arrow-left" viewBox="0 0 16 16">
        <path fill-rule="evenodd" d="M12 8a.5.5 0 0 1-.5.5H5.707l2.147 2.146a.5.5 0 0 1-.708.708l-3-3a.5.5 0 0 1 0-.708l3-3a.5.5 0 1 1 .708.708L5.707 7.5H11.5a.5.5 0 0 1 .5.5"/>
    </symbol>
    <symbol xmlns="http://www.w3.org/2000/svg" id="person" class="bi bi-person-circle" viewBox="0 0 16 16">
        <path d="M11 6a3 3 0 1 1-6 0 3 3 0 0 1 6 0"/>
        <path fill-rule="evenodd" d="M0 8a8 8 0 1 1 16 0A8 8 0 0 1 0 8m8-7a7 7 0 0 0-5.468 11.37C3.242 11.226 4.805 10 8 10s4.757 1.225 5.468 2.37A7 7 0 0 0 8 1"/>
    </symbol>
    <symbol xmlns="http://www.w3.org/2000/svg" id="list" viewBox="0 0 496 416">
        <path d="M 24 0 Q 2 2 0 24 L 0 72 L 0 72 Q 2 94 24 96 L 72 96 L 72 96 Q 94 94 96 72 L 96 24 L 96 24 Q 94 2 72 0 L 24 0 L 24 0 Z M 176 16 Q 162 16 153 25 L 153 25 L 153 25 Q 144 34 144 48 Q 144 62 153 71 Q 162 80 176 80 L 464 80 L 464 80 Q 478 80 487 71 Q 496 62 496 48 Q 496 34 487 25 Q 478 16 464 16 L 176 16 L 176 16 Z M 176 176 Q 162 176 153 185 L 153 185 L 153 185 Q 144 194 144 208 Q 144 222 153 231 Q 162 240 176 240 L 464 240 L 464 240 Q 478 240 487 231 Q 496 222 496 208 Q 496 194 487 185 Q 478 176 464 176 L 176 176 L 176 176 Z M 176 336 Q 162 336 153 345 L 153 345 L 153 345 Q 144 354 144 368 Q 144 382 153 391 Q 162 400 176 400 L 464 400 L 464 400 Q 478 400 487 391 Q 496 382 496 368 Q 496 354 487 345 Q 478 336 464 336 L 176 336 L 176 336 Z M 0 184 L 0 232 L 0 184 L 0 232 Q 2 254 24 256 L 72 256 L 72 256 Q 94 254 96 232 L 96 184 L 96 184 Q 94 162 72 160 L 24 160 L 24 160 Q 2 162 0 184 L 0 184 Z M 24 320 Q 2 322 0 344 L 0 392 L 0 392 Q 2 414 24 416 L 72 416 L 72 416 Q 94 414 96 392 L 96 344 L 96 344 Q 94 322 72 320 L 24 320 L 24 320 Z" />
    </symbol>
    <symbol xmlns="http://www.w3.org/2000/svg" id="plus" viewBox="0 0 416 416">
        <path d="M 240 32 Q 240 18 231 9 L 231 9 L 231 9 Q 222 0 208 0 Q 194 0 185 9 Q 176 18 176 32 L 176 176 L 176 176 L 32 176 L 32 176 Q 18 176 9 185 Q 0 194 0 208 Q 0 222 9 231 Q 18 240 32 240 L 176 240 L 176 240 L 176 384 L 176 384 Q 176 398 185 407 Q 194 416 208 416 Q 222 416 231 407 Q 240 398 240 384 L 240 240 L 240 240 L 384 240 L 384 240 Q 398 240 407 231 Q 416 222 416 208 Q 416 194 407 185 Q 398 176 384 176 L 240 176 L 240 176 L 240 32 L 240 32 Z" />
    </symbol>
    <symbol xmlns="http://www.w3.org/2000/svg" id="yes" viewBox="0 0 512 512">
       <path d="M 256 512 Q 326 511 384 478 L 384 478 L 384 478 Q 442 444 478 384 Q 512 323 512 256 Q 512 189 478 128 Q 442 68 384 34 Q 326 1 256 0 Q 186 1 128 34 Q 70 68 34 128 Q 0 189 0 256 Q 0 323 34 384 Q 70 444 128 478 Q 186 511 256 512 L 256 512 Z M 369 209 L 241 337 L 369 209 L 241 337 Q 224 351 207 337 L 143 273 L 143 273 Q 129 256 143 239 Q 160 225 177 239 L 224 286 L 224 286 L 335 175 L 335 175 Q 352 161 369 175 Q 383 192 369 209 L 369 209 Z" />
    </symbol>
    <symbol xmlns="http://www.w3.org/2000/svg" id="no" viewBox="0 0 512 512">
        <path d="M 256 512 Q 326 511 384 478 L 384 478 L 384 478 Q 442 444 478 384 Q 512 323 512 256 Q 512 189 478 128 Q 442 68 384 34 Q 326 1 256 0 Q 186 1 128 34 Q 70 68 34 128 Q 0 189 0 256 Q 0 323 34 384 Q 70 444 128 478 Q 186 511 256 512 L 256 512 Z M 175 175 Q 192 161 209 175 L 256 222 L 256 222 L 303 175 L 303 175 Q 320 161 337 175 Q 351 192 337 209 L 290 256 L 290 256 L 337 303 L 337 303 Q 351 320 337 337 Q 320 351 303 337 L 256 290 L 256 290 L 209 337 L 209 337 Q 192 351 175 337 Q 161 320 175 303 L 222 256 L 222 256 L 175 209 L 175 209 Q 161 192 175 175 L 175 175 Z" />
    </symbol>
    <symbol xmlns="http://www.w3.org/2000/svg" xmlns:xlink="http://www.w3.org/1999/xlink" id="plus2" viewBox="0 0 512 512">
        <path
            d="M 256 512 Q 326 511 384 478 L 384 478 L 384 478 Q 442 444 478 384 Q 512 323 512 256 Q 512 189 478 128 Q 442 68 384 34 Q 326 1 256 0 Q 186 1 128 34 Q 70 68 34 128 Q 0 189 0 256 Q 0 323 34 384 Q 70 444 128 478 Q 186 511 256 512 L 256 512 Z M 232 344 L 232 280 L 232 344 L 232 280 L 168 280 L 168 280 Q 146 278 144 256 Q 146 234 168 232 L 232 232 L 232 232 L 232 168 L 232 168 Q 234 146 256 144 Q 278 146 280 168 L 280 232 L 280 232 L 344 232 L 344 232 Q 366 234 368 256 Q 366 278 344 280 L 280 280 L 280 280 L 280 344 L 280 344 Q 278 366 256 368 Q 234 366 232 344 L 232 344 Z"
        />
        </symbol>
    <symbol xmlns="http://www.w3.org/2000/svg" id="lock" viewBox="0 0 448 512">
        <path d="M 144 144 L 144 192 L 144 144 L 144 192 L 304 192 L 304 192 L 304 144 L 304 144 Q 303 110 281 87 Q 258 65 224 64 Q 190 65 167 87 Q 145 110 144 144 L 144 144 Z M 80 192 L 80 144 L 80 192 L 80 144 Q 82 83 122 42 Q 163 2 224 0 Q 285 2 326 42 Q 366 83 368 144 L 368 192 L 368 192 L 384 192 L 384 192 Q 411 193 429 211 Q 447 229 448 256 L 448 448 L 448 448 Q 447 475 429 493 Q 411 511 384 512 L 64 512 L 64 512 Q 37 511 19 493 Q 1 475 0 448 L 0 256 L 0 256 Q 1 229 19 211 Q 37 193 64 192 L 80 192 L 80 192 Z" />
    </symbol>
    <symbol xmlns="http://www.w3.org/2000/svg" id="trash" viewBox="0 0 448 512">
        <path d="M 135 18 L 128 32 L 135 18 L 128 32 L 32 32 L 32 32 Q 18 32 9 41 Q 0 50 0 64 Q 0 78 9 87 Q 18 96 32 96 L 416 96 L 416 96 Q 430 96 439 87 Q 448 78 448 64 Q 448 50 439 41 Q 430 32 416 32 L 320 32 L 320 32 L 313 18 L 313 18 Q 304 1 284 0 L 164 0 L 164 0 Q 144 1 135 18 L 135 18 Z M 416 128 L 32 128 L 416 128 L 32 128 L 53 467 L 53 467 Q 55 486 68 499 Q 82 512 101 512 L 347 512 L 347 512 Q 366 512 380 499 Q 393 486 395 467 L 416 128 L 416 128 Z" />
    </symbol>
    <symbol xmlns="http://www.w3.org/2000/svg" id="at" viewBox="0 0 512 512">
        <path d="M 256 64 Q 174 66 120 120 L 120 120 L 120 120 Q 66 174 64 256 Q 66 338 120 392 Q 174 446 256 448 Q 270 448 279 457 Q 288 466 288 480 Q 288 494 279 503 Q 270 512 256 512 Q 184 511 127 477 Q 69 443 35 385 Q 1 328 0 256 Q 1 184 35 127 Q 69 69 127 35 Q 184 1 256 0 Q 328 1 385 35 Q 443 69 477 127 Q 511 184 512 256 L 512 288 L 512 288 Q 511 329 484 356 Q 457 383 416 384 Q 371 383 343 350 Q 307 383 256 384 Q 202 383 165 347 Q 129 310 128 256 Q 129 202 165 165 Q 202 129 256 128 Q 299 129 331 152 Q 339 144 352 144 Q 366 144 375 153 Q 384 162 384 176 L 384 256 L 384 256 L 384 288 L 384 288 Q 384 302 393 311 Q 402 320 416 320 Q 430 320 439 311 Q 448 302 448 288 L 448 256 L 448 256 Q 446 174 392 120 Q 338 66 256 64 L 256 64 Z M 320 256 Q 319 220 288 201 Q 256 183 224 201 Q 193 220 192 256 Q 193 292 224 311 Q 256 329 288 311 Q 319 292 320 256 L 320 256 Z" />
    </symbol>
    <symbol xmlns="http://www.w3.org/2000/svg" id="pen" viewBox="0 0 507 507">
        <path d="M 472 17 Q 454 0 432 0 L 432 0 L 432 0 Q 410 0 392 17 L 362 47 L 362 47 L 460 145 L 460 145 L 490 115 L 490 115 Q 507 97 507 75 Q 507 53 490 35 L 472 17 L 472 17 Z M 172 237 Q 163 246 159 259 L 129 347 L 129 347 Q 125 361 135 372 Q 146 382 160 378 L 249 348 L 249 348 Q 261 344 270 335 L 438 167 L 438 167 L 340 69 L 340 69 L 172 237 L 172 237 Z M 96 59 Q 55 60 28 87 L 28 87 L 28 87 Q 1 114 0 155 L 0 411 L 0 411 Q 1 452 28 479 Q 55 506 96 507 L 352 507 L 352 507 Q 393 506 420 479 Q 447 452 448 411 L 448 315 L 448 315 Q 448 301 439 292 Q 430 283 416 283 Q 402 283 393 292 Q 384 301 384 315 L 384 411 L 384 411 Q 384 425 375 434 Q 366 443 352 443 L 96 443 L 96 443 Q 82 443 73 434 Q 64 425 64 411 L 64 155 L 64 155 Q 64 141 73 132 Q 82 123 96 123 L 192 123 L 192 123 Q 206 123 215 114 Q 224 105 224 91 Q 224 77 215 68 Q 206 59 192 59 L 96 59 L 96 59 Z" />
    </symbol>
    <symbol xmlns="http://www.w3.org/2000/svg" id="msg" viewBox="0 0 512 514">
        <path d="M 64 0 Q 37 1 19 19 L 19 19 L 19 19 Q 1 37 0 64 L 0 352 L 0 352 Q 1 379 19 397 Q 37 415 64 416 L 160 416 L 160 416 L 160 496 L 160 496 Q 160 506 169 510 Q 178 514 186 509 L 309 416 L 309 416 L 448 416 L 448 416 Q 475 415 493 397 Q 511 379 512 352 L 512 64 L 512 64 Q 511 37 493 19 Q 475 1 448 0 L 64 0 L 64 0 Z" />
    </symbol>
    <symbol xmlns="http://www.w3.org/2000/svg" viewBox="0 0 512 512" id="download">
        <path d="M 288 32 Q 288 18 279 9 L 279 9 L 279 9 Q 270 0 256 0 Q 242 0 233 9 Q 224 18 224 32 L 224 275 L 224 275 L 151 201 L 151 201 Q 141 192 128 192 Q 115 192 105 201 Q 96 211 96 224 Q 96 237 105 247 L 233 375 L 233 375 Q 243 384 256 384 Q 269 384 279 375 L 407 247 L 407 247 Q 416 237 416 224 Q 416 211 407 201 Q 397 192 384 192 Q 371 192 361 201 L 288 275 L 288 275 L 288 32 L 288 32 Z M 64 352 Q 37 353 19 371 L 19 371 L 19 371 Q 1 389 0 416 L 0 448 L 0 448 Q 1 475 19 493 Q 37 511 64 512 L 448 512 L 448 512 Q 475 511 493 493 Q 511 475 512 448 L 512 416 L 512 416 Q 511 389 493 371 Q 475 353 448 352 L 347 352 L 347 352 L 301 397 L 301 397 Q 281 416 256 416 Q 230 416 211 397 L 166 352 L 166 352 L 64 352 L 64 352 Z M 432 408 Q 454 410 456 432 Q 454 454 432 456 Q 410 454 408 432 Q 410 410 432 408 L 432 408 Z" />
    </symbol>
    <symbol xmlns="http://www.w3.org/2000/svg" viewBox="0 0 384 512" id="memo">
        <path d="M 0 64 Q 1 37 19 19 L 19 19 L 19 19 Q 37 1 64 0 L 320 0 L 320 0 Q 347 1 365 19 Q 383 37 384 64 L 384 448 L 384 448 Q 383 475 365 493 Q 347 511 320 512 L 64 512 L 64 512 Q 37 511 19 493 Q 1 475 0 448 L 0 64 L 0 64 Z M 64 144 Q 65 159 80 160 L 304 160 L 304 160 Q 319 159 320 144 Q 319 129 304 128 L 80 128 L 80 128 Q 65 129 64 144 L 64 144 Z M 80 224 Q 65 225 64 240 Q 65 255 80 256 L 304 256 L 304 256 Q 319 255 320 240 Q 319 225 304 224 L 80 224 L 80 224 Z M 80 320 Q 65 321 64 336 Q 65 351 80 352 L 208 352 L 208 352 Q 223 351 224 336 Q 223 321 208 320 L 80 320 L 80 320 Z" />
    </symbol>
    <symbol xmlns="http://www.w3.org/2000/svg" viewBox="0 0 576 512" id="memo-info">
        <path d="M 0 64 Q 1 37 19 19 L 19 19 L 19 19 Q 37 1 64 0 L 320 0 L 320 0 Q 347 1 365 19 Q 383 37 384 64 L 384 199 L 384 199 Q 328 215 292 261 Q 257 306 256 368 Q 256 413 276 450 Q 296 487 330 511 Q 325 512 320 512 L 64 512 L 64 512 Q 37 511 19 493 Q 1 475 0 448 L 0 64 L 0 64 Z M 64 144 Q 65 159 80 160 L 304 160 L 304 160 Q 319 159 320 144 Q 319 129 304 128 L 80 128 L 80 128 Q 65 129 64 144 L 64 144 Z M 80 224 Q 65 225 64 240 Q 65 255 80 256 L 240 256 L 240 256 Q 255 255 256 240 Q 255 225 240 224 L 80 224 L 80 224 Z M 80 320 Q 65 321 64 336 Q 65 351 80 352 L 176 352 L 176 352 Q 191 351 192 336 Q 191 321 176 320 L 80 320 L 80 320 Z M 432 224 Q 471 224 504 243 L 504 243 L 504 243 Q 537 262 557 296 Q 576 330 576 368 Q 576 406 557 440 Q 537 474 504 493 Q 471 512 432 512 Q 393 512 360 493 Q 327 474 307 440 Q 288 406 288 368 Q 288 330 307 296 Q 327 262 360 243 Q 393 224 432 224 L 432 224 Z M 432 320 Q 454 318 456 296 Q 454 274 432 272 Q 410 274 408 296 Q 410 318 432 320 L 432 320 Z M 400 368 Q 401 383 416 384 Q 416 384 416 384 Q 416 384 416 384 L 416 432 L 416 432 Q 416 432 416 432 Q 416 432 416 432 Q 401 433 400 448 Q 401 463 416 464 L 432 464 L 448 464 Q 463 463 464 448 Q 463 433 448 432 L 448 368 L 448 368 Q 447 353 432 352 L 416 352 L 416 352 Q 401 353 400 368 L 400 368 Z" />
    </symbol>
</svg>