<svg xmlns="http://www.w3.org/2000/svg">
    <symbol xmlns="http://www.w3.org/2000/svg" id="arrow-left" viewBox="0 0 16 16">
        <path fill-rule="evenodd" d="M12 8a.5.5 0 0 1-.5.5H5.707l2.147 2.146a.5.5 0 0 1-.708.708l-3-3a.5.5 0 0 1 0-.708l3-3a.5.5 0 1 1 .708.708L5.707 7.5H11.5a.5.5 0 0 1 .5.5"/>
    </symbol>
    <symbol xmlns="http://www.w3.org/2000/svg" id="person" class="bi bi-person-circle" viewBox="0 0 16 16">
        <path d="M11 6a3 3 0 1 1-6 0 3 3 0 0 1 6 0"/>
        <path fill-rule="evenodd" d="M0 8a8 8 0 1 1 16 0A8 8 0 0 1 0 8m8-7a7 7 0 0 0-5.468 11.37C3.242 11.226 4.805 10 8 10s4.757 1.225 5.468 2.37A7 7 0 0 0 8 1"/>
    </symbol>
    <symbol xmlns="http://www.w3.org/2000/svg" id="list" viewBox="0 0 496 416">
        <path d="M 24 0 Q 2 2 0 24 L 0 72 L 0 72 Q 2 94 24 96 L 72 96 L 72 96 Q 94 94 96 72 L 96 24 L 96 24 Q 94 2 72 0 L 24 0 L 24 0 Z M 176 16 Q 162 16 153 25 L 153 25 L 153 25 Q 144 34 144 48 Q 144 62 153 71 Q 162 80 176 80 L 464 80 L 464 80 Q 478 80 487 71 Q 496 62 496 48 Q 496 34 487 25 Q 478 16 464 16 L 176 16 L 176 16 Z M 176 176 Q 162 176 153 185 L 153 185 L 153 185 Q 144 194 144 208 Q 144 222 153 231 Q 162 240 176 240 L 464 240 L 464 240 Q 478 240 487 231 Q 496 222 496 208 Q 496 194 487 185 Q 478 176 464 176 L 176 176 L 176 176 Z M 176 336 Q 162 336 153 345 L 153 345 L 153 345 Q 144 354 144 368 Q 144 382 153 391 Q 162 400 176 400 L 464 400 L 464 400 Q 478 400 487 391 Q 496 382 496 368 Q 496 354 487 345 Q 478 336 464 336 L 176 336 L 176 336 Z M 0 184 L 0 232 L 0 184 L 0 232 Q 2 254 24 256 L 72 256 L 72 256 Q 94 254 96 232 L 96 184 L 96 184 Q 94 162 72 160 L 24 160 L 24 160 Q 2 162 0 184 L 0 184 Z M 24 320 Q 2 322 0 344 L 0 392 L 0 392 Q 2 414 24 416 L 72 416 L 72 416 Q 94 414 96 392 L 96 344 L 96 344 Q 94 322 72 320 L 24 320 L 24 320 Z" />
    </symbol>
    <symbol xmlns="http://www.w3.org/2000/svg" id="plus" viewBox="0 0 416 416">
        <path d="M 240 32 Q 240 18 231 9 L 231 9 L 231 9 Q 222 0 208 0 Q 194 0 185 9 Q 176 18 176 32 L 176 176 L 176 176 L 32 176 L 32 176 Q 18 176 9 185 Q 0 194 0 208 Q 0 222 9 231 Q 18 240 32 240 L 176 240 L 176 240 L 176 384 L 176 384 Q 176 398 185 407 Q 194 416 208 416 Q 222 416 231 407 Q 240 398 240 384 L 240 240 L 240 240 L 384 240 L 384 240 Q 398 240 407 231 Q 416 222 416 208 Q 416 194 407 185 Q 398 176 384 176 L 240 176 L 240 176 L 240 32 L 240 32 Z" />
    </symbol>
    <symbol xmlns="http://www.w3.org/2000/svg" id="yes" viewBox="0 0 512 512">
       <path d="M 256 512 Q 326 511 384 478 L 384 478 L 384 478 Q 442 444 478 384 Q 512 323 512 256 Q 512 189 478 128 Q 442 68 384 34 Q 326 1 256 0 Q 186 1 128 34 Q 70 68 34 128 Q 0 189 0 256 Q 0 323 34 384 Q 70 444 128 478 Q 186 511 256 512 L 256 512 Z M 369 209 L 241 337 L 369 209 L 241 337 Q 224 351 207 337 L 143 273 L 143 273 Q 129 256 143 239 Q 160 225 177 239 L 224 286 L 224 286 L 335 175 L 335 175 Q 352 161 369 175 Q 383 192 369 209 L 369 209 Z" />
    </symbol>
    <svg xmlns="http://www.w3.org/2000/svg" id="no" viewBox="0 0 512 512">
        <path d="M 256 512 Q 326 511 384 478 L 384 478 L 384 478 Q 442 444 478 384 Q 512 323 512 256 Q 512 189 478 128 Q 442 68 384 34 Q 326 1 256 0 Q 186 1 128 34 Q 70 68 34 128 Q 0 189 0 256 Q 0 323 34 384 Q 70 444 128 478 Q 186 511 256 512 L 256 512 Z M 175 175 Q 192 161 209 175 L 256 222 L 256 222 L 303 175 L 303 175 Q 320 161 337 175 Q 351 192 337 209 L 290 256 L 290 256 L 337 303 L 337 303 Q 351 320 337 337 Q 320 351 303 337 L 256 290 L 256 290 L 209 337 L 209 337 Q 192 351 175 337 Q 161 320 175 303 L 222 256 L 222 256 L 175 209 L 175 209 Q 161 192 175 175 L 175 175 Z" />
    </svg>
</svg>